<svg width="512" height="512" viewBox="0 0 512 512" fill="none" xmlns="http://www.w3.org/2000/svg">
<rect width="512" height="512" fill="#2B2B2B"/>
<path d="M385.116 337.132L199.762 187.19L199.762 335.749H194.23L194.23 180.273H199.762L385.116 330.216V181.38H390.648V337.132H385.116Z" fill="white"/>
<path d="M101.3 253.746C101.3 241.035 103.485 228.522 107.855 216.208C112.423 203.695 118.977 192.373 127.518 182.244C136.059 171.916 146.486 163.673 158.8 157.516C171.115 151.359 185.217 148.28 201.106 148.28C219.975 148.28 235.963 152.65 249.072 161.389C262.181 169.93 271.913 180.953 278.269 194.459L272.608 196.246C267.246 185.918 260.592 177.676 252.647 171.519C244.703 165.361 236.162 160.992 227.026 158.41C218.088 155.629 209.051 154.239 199.914 154.239C185.217 154.239 172.108 157.119 160.588 162.879C149.068 168.639 139.336 176.385 131.391 186.117C123.446 195.849 117.389 206.674 113.218 218.591C109.245 230.309 107.259 242.326 107.259 254.64C107.259 268.146 109.642 281.056 114.409 293.371C119.176 305.486 125.83 316.311 134.37 325.845C142.911 335.378 152.842 342.926 164.163 348.487C175.484 354.048 187.699 356.829 200.808 356.829C210.143 356.829 219.677 355.24 229.409 352.062C239.141 348.884 248.278 344.018 256.818 337.464C265.359 330.909 272.311 322.468 277.673 312.14L283.334 313.63C278.567 324.156 271.615 333.094 262.479 340.443C253.343 347.792 243.213 353.353 232.09 357.127C221.166 360.901 210.342 362.788 199.616 362.788C185.316 362.788 172.108 359.709 159.992 353.552C148.075 347.196 137.648 338.854 128.71 328.526C119.971 317.999 113.218 306.281 108.451 293.371C103.684 280.262 101.3 267.054 101.3 253.746Z" fill="white"/>
</svg>
