<svg width="338" height="350" viewBox="0 0 338 350" fill="none" xmlns="http://www.w3.org/2000/svg">
<path d="M298.116 256.132L112.762 106.19L112.762 254.749H107.23L107.23 99.2735H112.762L298.116 249.216V100.38H303.648V256.132H298.116Z" fill="white"/>
<path d="M14.3005 172.746C14.3005 160.035 16.4853 147.522 20.8549 135.208C25.4231 122.695 31.9775 111.373 40.5181 101.244C49.0586 90.9158 59.4861 82.6731 71.8004 76.516C84.1147 70.3588 98.2166 67.2802 114.106 67.2802C132.975 67.2802 148.963 71.6498 162.072 80.389C175.181 88.9296 184.913 99.9529 191.269 113.459L185.608 115.246C180.246 104.918 173.592 96.6757 165.647 90.5185C157.703 84.3614 149.162 79.9918 140.026 77.4097C131.088 74.6291 122.051 73.2388 112.914 73.2388C98.2166 73.2388 85.1078 76.1187 73.5879 81.8786C62.0681 87.6386 52.3358 95.3847 44.3911 105.117C36.4464 114.849 30.3885 125.674 26.2176 137.591C22.2452 149.309 20.259 161.326 20.259 173.64C20.259 187.146 22.6424 200.056 27.4093 212.371C32.1761 224.486 38.8298 235.311 47.3704 244.845C55.9109 254.378 65.8418 261.926 77.1631 267.487C88.4843 273.048 100.699 275.829 113.808 275.829C123.143 275.829 132.677 274.24 142.409 271.062C152.141 267.884 161.278 263.018 169.818 256.464C178.359 249.909 185.311 241.468 190.673 231.14L196.334 232.63C191.567 243.156 184.615 252.094 175.479 259.443C166.343 266.792 156.213 272.353 145.09 276.127C134.166 279.901 123.342 281.788 112.616 281.788C98.3159 281.788 85.1078 278.709 72.9921 272.552C61.075 266.196 50.6476 257.854 41.7098 247.526C32.9706 236.999 26.2176 225.281 21.4507 212.371C16.6839 199.262 14.3005 186.054 14.3005 172.746Z" fill="white"/>
</svg>
